<mxfile host="app.diagrams.net" modified="2023-05-29T09:20:59.958Z" agent="Mozilla/5.0 (Macintosh; Intel Mac OS X 10.15; rv:109.0) Gecko/20100101 Firefox/113.0" version="21.1.2" etag="AyyRX4HPhPN6wVnT9aam" type="github">
  <diagram name="Page-1" id="NfHpFqoO2vRAi63MOtxQ">
    <mxGraphModel>
      <root>
        <mxCell id="0" />
        <mxCell id="1" parent="0" />
      </root>
    </mxGraphModel>
  </diagram>
</mxfile>
